%TF.GenerationSoftware,KiCad,Pcbnew,9.0.2*%
%TF.CreationDate,2025-05-22T18:28:58+02:00*%
%TF.ProjectId,blinky,626c696e-6b79-42e6-9b69-6361645f7063,rev?*%
%TF.SameCoordinates,Original*%
%TF.FileFunction,Legend,Bot*%
%TF.FilePolarity,Positive*%
%FSLAX46Y46*%
G04 Gerber Fmt 4.6, Leading zero omitted, Abs format (unit mm)*
G04 Created by KiCad (PCBNEW 9.0.2) date 2025-05-22 18:28:58*
%MOMM*%
%LPD*%
G01*
G04 APERTURE LIST*
%ADD10C,0.150000*%
%ADD11C,0.120000*%
G04 APERTURE END LIST*
D10*
X134763094Y-86875057D02*
X134715475Y-86827438D01*
X134715475Y-86827438D02*
X134620237Y-86779819D01*
X134620237Y-86779819D02*
X134382142Y-86779819D01*
X134382142Y-86779819D02*
X134286904Y-86827438D01*
X134286904Y-86827438D02*
X134239285Y-86875057D01*
X134239285Y-86875057D02*
X134191666Y-86970295D01*
X134191666Y-86970295D02*
X134191666Y-87065533D01*
X134191666Y-87065533D02*
X134239285Y-87208390D01*
X134239285Y-87208390D02*
X134810713Y-87779819D01*
X134810713Y-87779819D02*
X134191666Y-87779819D01*
X133810713Y-86875057D02*
X133763094Y-86827438D01*
X133763094Y-86827438D02*
X133667856Y-86779819D01*
X133667856Y-86779819D02*
X133429761Y-86779819D01*
X133429761Y-86779819D02*
X133334523Y-86827438D01*
X133334523Y-86827438D02*
X133286904Y-86875057D01*
X133286904Y-86875057D02*
X133239285Y-86970295D01*
X133239285Y-86970295D02*
X133239285Y-87065533D01*
X133239285Y-87065533D02*
X133286904Y-87208390D01*
X133286904Y-87208390D02*
X133858332Y-87779819D01*
X133858332Y-87779819D02*
X133239285Y-87779819D01*
X132620237Y-86779819D02*
X132524999Y-86779819D01*
X132524999Y-86779819D02*
X132429761Y-86827438D01*
X132429761Y-86827438D02*
X132382142Y-86875057D01*
X132382142Y-86875057D02*
X132334523Y-86970295D01*
X132334523Y-86970295D02*
X132286904Y-87160771D01*
X132286904Y-87160771D02*
X132286904Y-87398866D01*
X132286904Y-87398866D02*
X132334523Y-87589342D01*
X132334523Y-87589342D02*
X132382142Y-87684580D01*
X132382142Y-87684580D02*
X132429761Y-87732200D01*
X132429761Y-87732200D02*
X132524999Y-87779819D01*
X132524999Y-87779819D02*
X132620237Y-87779819D01*
X132620237Y-87779819D02*
X132715475Y-87732200D01*
X132715475Y-87732200D02*
X132763094Y-87684580D01*
X132763094Y-87684580D02*
X132810713Y-87589342D01*
X132810713Y-87589342D02*
X132858332Y-87398866D01*
X132858332Y-87398866D02*
X132858332Y-87160771D01*
X132858332Y-87160771D02*
X132810713Y-86970295D01*
X132810713Y-86970295D02*
X132763094Y-86875057D01*
X132763094Y-86875057D02*
X132715475Y-86827438D01*
X132715475Y-86827438D02*
X132620237Y-86779819D01*
X131286904Y-87779819D02*
X131620237Y-87303628D01*
X131858332Y-87779819D02*
X131858332Y-86779819D01*
X131858332Y-86779819D02*
X131477380Y-86779819D01*
X131477380Y-86779819D02*
X131382142Y-86827438D01*
X131382142Y-86827438D02*
X131334523Y-86875057D01*
X131334523Y-86875057D02*
X131286904Y-86970295D01*
X131286904Y-86970295D02*
X131286904Y-87113152D01*
X131286904Y-87113152D02*
X131334523Y-87208390D01*
X131334523Y-87208390D02*
X131382142Y-87256009D01*
X131382142Y-87256009D02*
X131477380Y-87303628D01*
X131477380Y-87303628D02*
X131858332Y-87303628D01*
X78457142Y-77469104D02*
X77980952Y-77469104D01*
X78552380Y-77754819D02*
X78219047Y-76754819D01*
X78219047Y-76754819D02*
X77885714Y-77754819D01*
X77695237Y-76754819D02*
X77123809Y-76754819D01*
X77409523Y-77754819D02*
X77409523Y-76754819D01*
X76933332Y-77088152D02*
X76552380Y-77088152D01*
X76790475Y-76754819D02*
X76790475Y-77611961D01*
X76790475Y-77611961D02*
X76742856Y-77707200D01*
X76742856Y-77707200D02*
X76647618Y-77754819D01*
X76647618Y-77754819D02*
X76552380Y-77754819D01*
X76219046Y-77754819D02*
X76219046Y-77088152D01*
X76219046Y-76754819D02*
X76266665Y-76802438D01*
X76266665Y-76802438D02*
X76219046Y-76850057D01*
X76219046Y-76850057D02*
X76171427Y-76802438D01*
X76171427Y-76802438D02*
X76219046Y-76754819D01*
X76219046Y-76754819D02*
X76219046Y-76850057D01*
X75742856Y-77088152D02*
X75742856Y-77754819D01*
X75742856Y-77183390D02*
X75695237Y-77135771D01*
X75695237Y-77135771D02*
X75599999Y-77088152D01*
X75599999Y-77088152D02*
X75457142Y-77088152D01*
X75457142Y-77088152D02*
X75361904Y-77135771D01*
X75361904Y-77135771D02*
X75314285Y-77231009D01*
X75314285Y-77231009D02*
X75314285Y-77754819D01*
X74933332Y-77088152D02*
X74695237Y-77754819D01*
X74457142Y-77088152D02*
X74695237Y-77754819D01*
X74695237Y-77754819D02*
X74790475Y-77992914D01*
X74790475Y-77992914D02*
X74838094Y-78040533D01*
X74838094Y-78040533D02*
X74933332Y-78088152D01*
X73552380Y-77754819D02*
X74123808Y-77754819D01*
X73838094Y-77754819D02*
X73838094Y-76754819D01*
X73838094Y-76754819D02*
X73933332Y-76897676D01*
X73933332Y-76897676D02*
X74028570Y-76992914D01*
X74028570Y-76992914D02*
X74123808Y-77040533D01*
X73219046Y-76754819D02*
X72599999Y-76754819D01*
X72599999Y-76754819D02*
X72933332Y-77135771D01*
X72933332Y-77135771D02*
X72790475Y-77135771D01*
X72790475Y-77135771D02*
X72695237Y-77183390D01*
X72695237Y-77183390D02*
X72647618Y-77231009D01*
X72647618Y-77231009D02*
X72599999Y-77326247D01*
X72599999Y-77326247D02*
X72599999Y-77564342D01*
X72599999Y-77564342D02*
X72647618Y-77659580D01*
X72647618Y-77659580D02*
X72695237Y-77707200D01*
X72695237Y-77707200D02*
X72790475Y-77754819D01*
X72790475Y-77754819D02*
X73076189Y-77754819D01*
X73076189Y-77754819D02*
X73171427Y-77707200D01*
X73171427Y-77707200D02*
X73219046Y-77659580D01*
X72219046Y-77469104D02*
X71742856Y-77469104D01*
X72314284Y-77754819D02*
X71980951Y-76754819D01*
X71980951Y-76754819D02*
X71647618Y-77754819D01*
X84663094Y-86925057D02*
X84615475Y-86877438D01*
X84615475Y-86877438D02*
X84520237Y-86829819D01*
X84520237Y-86829819D02*
X84282142Y-86829819D01*
X84282142Y-86829819D02*
X84186904Y-86877438D01*
X84186904Y-86877438D02*
X84139285Y-86925057D01*
X84139285Y-86925057D02*
X84091666Y-87020295D01*
X84091666Y-87020295D02*
X84091666Y-87115533D01*
X84091666Y-87115533D02*
X84139285Y-87258390D01*
X84139285Y-87258390D02*
X84710713Y-87829819D01*
X84710713Y-87829819D02*
X84091666Y-87829819D01*
X83710713Y-86925057D02*
X83663094Y-86877438D01*
X83663094Y-86877438D02*
X83567856Y-86829819D01*
X83567856Y-86829819D02*
X83329761Y-86829819D01*
X83329761Y-86829819D02*
X83234523Y-86877438D01*
X83234523Y-86877438D02*
X83186904Y-86925057D01*
X83186904Y-86925057D02*
X83139285Y-87020295D01*
X83139285Y-87020295D02*
X83139285Y-87115533D01*
X83139285Y-87115533D02*
X83186904Y-87258390D01*
X83186904Y-87258390D02*
X83758332Y-87829819D01*
X83758332Y-87829819D02*
X83139285Y-87829819D01*
X82520237Y-86829819D02*
X82424999Y-86829819D01*
X82424999Y-86829819D02*
X82329761Y-86877438D01*
X82329761Y-86877438D02*
X82282142Y-86925057D01*
X82282142Y-86925057D02*
X82234523Y-87020295D01*
X82234523Y-87020295D02*
X82186904Y-87210771D01*
X82186904Y-87210771D02*
X82186904Y-87448866D01*
X82186904Y-87448866D02*
X82234523Y-87639342D01*
X82234523Y-87639342D02*
X82282142Y-87734580D01*
X82282142Y-87734580D02*
X82329761Y-87782200D01*
X82329761Y-87782200D02*
X82424999Y-87829819D01*
X82424999Y-87829819D02*
X82520237Y-87829819D01*
X82520237Y-87829819D02*
X82615475Y-87782200D01*
X82615475Y-87782200D02*
X82663094Y-87734580D01*
X82663094Y-87734580D02*
X82710713Y-87639342D01*
X82710713Y-87639342D02*
X82758332Y-87448866D01*
X82758332Y-87448866D02*
X82758332Y-87210771D01*
X82758332Y-87210771D02*
X82710713Y-87020295D01*
X82710713Y-87020295D02*
X82663094Y-86925057D01*
X82663094Y-86925057D02*
X82615475Y-86877438D01*
X82615475Y-86877438D02*
X82520237Y-86829819D01*
X81186904Y-87829819D02*
X81520237Y-87353628D01*
X81758332Y-87829819D02*
X81758332Y-86829819D01*
X81758332Y-86829819D02*
X81377380Y-86829819D01*
X81377380Y-86829819D02*
X81282142Y-86877438D01*
X81282142Y-86877438D02*
X81234523Y-86925057D01*
X81234523Y-86925057D02*
X81186904Y-87020295D01*
X81186904Y-87020295D02*
X81186904Y-87163152D01*
X81186904Y-87163152D02*
X81234523Y-87258390D01*
X81234523Y-87258390D02*
X81282142Y-87306009D01*
X81282142Y-87306009D02*
X81377380Y-87353628D01*
X81377380Y-87353628D02*
X81758332Y-87353628D01*
X109738094Y-86925057D02*
X109690475Y-86877438D01*
X109690475Y-86877438D02*
X109595237Y-86829819D01*
X109595237Y-86829819D02*
X109357142Y-86829819D01*
X109357142Y-86829819D02*
X109261904Y-86877438D01*
X109261904Y-86877438D02*
X109214285Y-86925057D01*
X109214285Y-86925057D02*
X109166666Y-87020295D01*
X109166666Y-87020295D02*
X109166666Y-87115533D01*
X109166666Y-87115533D02*
X109214285Y-87258390D01*
X109214285Y-87258390D02*
X109785713Y-87829819D01*
X109785713Y-87829819D02*
X109166666Y-87829819D01*
X108785713Y-86925057D02*
X108738094Y-86877438D01*
X108738094Y-86877438D02*
X108642856Y-86829819D01*
X108642856Y-86829819D02*
X108404761Y-86829819D01*
X108404761Y-86829819D02*
X108309523Y-86877438D01*
X108309523Y-86877438D02*
X108261904Y-86925057D01*
X108261904Y-86925057D02*
X108214285Y-87020295D01*
X108214285Y-87020295D02*
X108214285Y-87115533D01*
X108214285Y-87115533D02*
X108261904Y-87258390D01*
X108261904Y-87258390D02*
X108833332Y-87829819D01*
X108833332Y-87829819D02*
X108214285Y-87829819D01*
X107595237Y-86829819D02*
X107499999Y-86829819D01*
X107499999Y-86829819D02*
X107404761Y-86877438D01*
X107404761Y-86877438D02*
X107357142Y-86925057D01*
X107357142Y-86925057D02*
X107309523Y-87020295D01*
X107309523Y-87020295D02*
X107261904Y-87210771D01*
X107261904Y-87210771D02*
X107261904Y-87448866D01*
X107261904Y-87448866D02*
X107309523Y-87639342D01*
X107309523Y-87639342D02*
X107357142Y-87734580D01*
X107357142Y-87734580D02*
X107404761Y-87782200D01*
X107404761Y-87782200D02*
X107499999Y-87829819D01*
X107499999Y-87829819D02*
X107595237Y-87829819D01*
X107595237Y-87829819D02*
X107690475Y-87782200D01*
X107690475Y-87782200D02*
X107738094Y-87734580D01*
X107738094Y-87734580D02*
X107785713Y-87639342D01*
X107785713Y-87639342D02*
X107833332Y-87448866D01*
X107833332Y-87448866D02*
X107833332Y-87210771D01*
X107833332Y-87210771D02*
X107785713Y-87020295D01*
X107785713Y-87020295D02*
X107738094Y-86925057D01*
X107738094Y-86925057D02*
X107690475Y-86877438D01*
X107690475Y-86877438D02*
X107595237Y-86829819D01*
X106261904Y-87829819D02*
X106595237Y-87353628D01*
X106833332Y-87829819D02*
X106833332Y-86829819D01*
X106833332Y-86829819D02*
X106452380Y-86829819D01*
X106452380Y-86829819D02*
X106357142Y-86877438D01*
X106357142Y-86877438D02*
X106309523Y-86925057D01*
X106309523Y-86925057D02*
X106261904Y-87020295D01*
X106261904Y-87020295D02*
X106261904Y-87163152D01*
X106261904Y-87163152D02*
X106309523Y-87258390D01*
X106309523Y-87258390D02*
X106357142Y-87306009D01*
X106357142Y-87306009D02*
X106452380Y-87353628D01*
X106452380Y-87353628D02*
X106833332Y-87353628D01*
X126738094Y-86875057D02*
X126690475Y-86827438D01*
X126690475Y-86827438D02*
X126595237Y-86779819D01*
X126595237Y-86779819D02*
X126357142Y-86779819D01*
X126357142Y-86779819D02*
X126261904Y-86827438D01*
X126261904Y-86827438D02*
X126214285Y-86875057D01*
X126214285Y-86875057D02*
X126166666Y-86970295D01*
X126166666Y-86970295D02*
X126166666Y-87065533D01*
X126166666Y-87065533D02*
X126214285Y-87208390D01*
X126214285Y-87208390D02*
X126785713Y-87779819D01*
X126785713Y-87779819D02*
X126166666Y-87779819D01*
X125785713Y-86875057D02*
X125738094Y-86827438D01*
X125738094Y-86827438D02*
X125642856Y-86779819D01*
X125642856Y-86779819D02*
X125404761Y-86779819D01*
X125404761Y-86779819D02*
X125309523Y-86827438D01*
X125309523Y-86827438D02*
X125261904Y-86875057D01*
X125261904Y-86875057D02*
X125214285Y-86970295D01*
X125214285Y-86970295D02*
X125214285Y-87065533D01*
X125214285Y-87065533D02*
X125261904Y-87208390D01*
X125261904Y-87208390D02*
X125833332Y-87779819D01*
X125833332Y-87779819D02*
X125214285Y-87779819D01*
X124595237Y-86779819D02*
X124499999Y-86779819D01*
X124499999Y-86779819D02*
X124404761Y-86827438D01*
X124404761Y-86827438D02*
X124357142Y-86875057D01*
X124357142Y-86875057D02*
X124309523Y-86970295D01*
X124309523Y-86970295D02*
X124261904Y-87160771D01*
X124261904Y-87160771D02*
X124261904Y-87398866D01*
X124261904Y-87398866D02*
X124309523Y-87589342D01*
X124309523Y-87589342D02*
X124357142Y-87684580D01*
X124357142Y-87684580D02*
X124404761Y-87732200D01*
X124404761Y-87732200D02*
X124499999Y-87779819D01*
X124499999Y-87779819D02*
X124595237Y-87779819D01*
X124595237Y-87779819D02*
X124690475Y-87732200D01*
X124690475Y-87732200D02*
X124738094Y-87684580D01*
X124738094Y-87684580D02*
X124785713Y-87589342D01*
X124785713Y-87589342D02*
X124833332Y-87398866D01*
X124833332Y-87398866D02*
X124833332Y-87160771D01*
X124833332Y-87160771D02*
X124785713Y-86970295D01*
X124785713Y-86970295D02*
X124738094Y-86875057D01*
X124738094Y-86875057D02*
X124690475Y-86827438D01*
X124690475Y-86827438D02*
X124595237Y-86779819D01*
X123261904Y-87779819D02*
X123595237Y-87303628D01*
X123833332Y-87779819D02*
X123833332Y-86779819D01*
X123833332Y-86779819D02*
X123452380Y-86779819D01*
X123452380Y-86779819D02*
X123357142Y-86827438D01*
X123357142Y-86827438D02*
X123309523Y-86875057D01*
X123309523Y-86875057D02*
X123261904Y-86970295D01*
X123261904Y-86970295D02*
X123261904Y-87113152D01*
X123261904Y-87113152D02*
X123309523Y-87208390D01*
X123309523Y-87208390D02*
X123357142Y-87256009D01*
X123357142Y-87256009D02*
X123452380Y-87303628D01*
X123452380Y-87303628D02*
X123833332Y-87303628D01*
X68601189Y-78604819D02*
X68601189Y-77604819D01*
X68172618Y-78557200D02*
X68029761Y-78604819D01*
X68029761Y-78604819D02*
X67791666Y-78604819D01*
X67791666Y-78604819D02*
X67696428Y-78557200D01*
X67696428Y-78557200D02*
X67648809Y-78509580D01*
X67648809Y-78509580D02*
X67601190Y-78414342D01*
X67601190Y-78414342D02*
X67601190Y-78319104D01*
X67601190Y-78319104D02*
X67648809Y-78223866D01*
X67648809Y-78223866D02*
X67696428Y-78176247D01*
X67696428Y-78176247D02*
X67791666Y-78128628D01*
X67791666Y-78128628D02*
X67982142Y-78081009D01*
X67982142Y-78081009D02*
X68077380Y-78033390D01*
X68077380Y-78033390D02*
X68124999Y-77985771D01*
X68124999Y-77985771D02*
X68172618Y-77890533D01*
X68172618Y-77890533D02*
X68172618Y-77795295D01*
X68172618Y-77795295D02*
X68124999Y-77700057D01*
X68124999Y-77700057D02*
X68077380Y-77652438D01*
X68077380Y-77652438D02*
X67982142Y-77604819D01*
X67982142Y-77604819D02*
X67744047Y-77604819D01*
X67744047Y-77604819D02*
X67601190Y-77652438D01*
X67172618Y-78604819D02*
X67172618Y-77604819D01*
X67172618Y-77604819D02*
X66791666Y-77604819D01*
X66791666Y-77604819D02*
X66696428Y-77652438D01*
X66696428Y-77652438D02*
X66648809Y-77700057D01*
X66648809Y-77700057D02*
X66601190Y-77795295D01*
X66601190Y-77795295D02*
X66601190Y-77938152D01*
X66601190Y-77938152D02*
X66648809Y-78033390D01*
X66648809Y-78033390D02*
X66696428Y-78081009D01*
X66696428Y-78081009D02*
X66791666Y-78128628D01*
X66791666Y-78128628D02*
X67172618Y-78128628D01*
X80089285Y-68879819D02*
X79994047Y-68879819D01*
X79994047Y-68879819D02*
X79898809Y-68927438D01*
X79898809Y-68927438D02*
X79851190Y-68975057D01*
X79851190Y-68975057D02*
X79803571Y-69070295D01*
X79803571Y-69070295D02*
X79755952Y-69260771D01*
X79755952Y-69260771D02*
X79755952Y-69498866D01*
X79755952Y-69498866D02*
X79803571Y-69689342D01*
X79803571Y-69689342D02*
X79851190Y-69784580D01*
X79851190Y-69784580D02*
X79898809Y-69832200D01*
X79898809Y-69832200D02*
X79994047Y-69879819D01*
X79994047Y-69879819D02*
X80089285Y-69879819D01*
X80089285Y-69879819D02*
X80184523Y-69832200D01*
X80184523Y-69832200D02*
X80232142Y-69784580D01*
X80232142Y-69784580D02*
X80279761Y-69689342D01*
X80279761Y-69689342D02*
X80327380Y-69498866D01*
X80327380Y-69498866D02*
X80327380Y-69260771D01*
X80327380Y-69260771D02*
X80279761Y-69070295D01*
X80279761Y-69070295D02*
X80232142Y-68975057D01*
X80232142Y-68975057D02*
X80184523Y-68927438D01*
X80184523Y-68927438D02*
X80089285Y-68879819D01*
X79327380Y-69784580D02*
X79279761Y-69832200D01*
X79279761Y-69832200D02*
X79327380Y-69879819D01*
X79327380Y-69879819D02*
X79374999Y-69832200D01*
X79374999Y-69832200D02*
X79327380Y-69784580D01*
X79327380Y-69784580D02*
X79327380Y-69879819D01*
X78327381Y-69879819D02*
X78898809Y-69879819D01*
X78613095Y-69879819D02*
X78613095Y-68879819D01*
X78613095Y-68879819D02*
X78708333Y-69022676D01*
X78708333Y-69022676D02*
X78803571Y-69117914D01*
X78803571Y-69117914D02*
X78898809Y-69165533D01*
X77470238Y-69213152D02*
X77470238Y-69879819D01*
X77898809Y-69213152D02*
X77898809Y-69736961D01*
X77898809Y-69736961D02*
X77851190Y-69832200D01*
X77851190Y-69832200D02*
X77755952Y-69879819D01*
X77755952Y-69879819D02*
X77613095Y-69879819D01*
X77613095Y-69879819D02*
X77517857Y-69832200D01*
X77517857Y-69832200D02*
X77470238Y-69784580D01*
X76788094Y-86950057D02*
X76740475Y-86902438D01*
X76740475Y-86902438D02*
X76645237Y-86854819D01*
X76645237Y-86854819D02*
X76407142Y-86854819D01*
X76407142Y-86854819D02*
X76311904Y-86902438D01*
X76311904Y-86902438D02*
X76264285Y-86950057D01*
X76264285Y-86950057D02*
X76216666Y-87045295D01*
X76216666Y-87045295D02*
X76216666Y-87140533D01*
X76216666Y-87140533D02*
X76264285Y-87283390D01*
X76264285Y-87283390D02*
X76835713Y-87854819D01*
X76835713Y-87854819D02*
X76216666Y-87854819D01*
X75835713Y-86950057D02*
X75788094Y-86902438D01*
X75788094Y-86902438D02*
X75692856Y-86854819D01*
X75692856Y-86854819D02*
X75454761Y-86854819D01*
X75454761Y-86854819D02*
X75359523Y-86902438D01*
X75359523Y-86902438D02*
X75311904Y-86950057D01*
X75311904Y-86950057D02*
X75264285Y-87045295D01*
X75264285Y-87045295D02*
X75264285Y-87140533D01*
X75264285Y-87140533D02*
X75311904Y-87283390D01*
X75311904Y-87283390D02*
X75883332Y-87854819D01*
X75883332Y-87854819D02*
X75264285Y-87854819D01*
X74645237Y-86854819D02*
X74549999Y-86854819D01*
X74549999Y-86854819D02*
X74454761Y-86902438D01*
X74454761Y-86902438D02*
X74407142Y-86950057D01*
X74407142Y-86950057D02*
X74359523Y-87045295D01*
X74359523Y-87045295D02*
X74311904Y-87235771D01*
X74311904Y-87235771D02*
X74311904Y-87473866D01*
X74311904Y-87473866D02*
X74359523Y-87664342D01*
X74359523Y-87664342D02*
X74407142Y-87759580D01*
X74407142Y-87759580D02*
X74454761Y-87807200D01*
X74454761Y-87807200D02*
X74549999Y-87854819D01*
X74549999Y-87854819D02*
X74645237Y-87854819D01*
X74645237Y-87854819D02*
X74740475Y-87807200D01*
X74740475Y-87807200D02*
X74788094Y-87759580D01*
X74788094Y-87759580D02*
X74835713Y-87664342D01*
X74835713Y-87664342D02*
X74883332Y-87473866D01*
X74883332Y-87473866D02*
X74883332Y-87235771D01*
X74883332Y-87235771D02*
X74835713Y-87045295D01*
X74835713Y-87045295D02*
X74788094Y-86950057D01*
X74788094Y-86950057D02*
X74740475Y-86902438D01*
X74740475Y-86902438D02*
X74645237Y-86854819D01*
X73311904Y-87854819D02*
X73645237Y-87378628D01*
X73883332Y-87854819D02*
X73883332Y-86854819D01*
X73883332Y-86854819D02*
X73502380Y-86854819D01*
X73502380Y-86854819D02*
X73407142Y-86902438D01*
X73407142Y-86902438D02*
X73359523Y-86950057D01*
X73359523Y-86950057D02*
X73311904Y-87045295D01*
X73311904Y-87045295D02*
X73311904Y-87188152D01*
X73311904Y-87188152D02*
X73359523Y-87283390D01*
X73359523Y-87283390D02*
X73407142Y-87331009D01*
X73407142Y-87331009D02*
X73502380Y-87378628D01*
X73502380Y-87378628D02*
X73883332Y-87378628D01*
D11*
%TO.C,R5*%
X132872936Y-84765000D02*
X133327064Y-84765000D01*
X132872936Y-86235000D02*
X133327064Y-86235000D01*
%TO.C,U1*%
X73050000Y-70940000D02*
X75000000Y-70940000D01*
X73050000Y-76060000D02*
X75000000Y-76060000D01*
X76950000Y-70940000D02*
X75000000Y-70940000D01*
X76950000Y-76060000D02*
X75000000Y-76060000D01*
X77700000Y-71035000D02*
X77460000Y-70705000D01*
X77940000Y-70705000D01*
X77700000Y-71035000D01*
G36*
X77700000Y-71035000D02*
G01*
X77460000Y-70705000D01*
X77940000Y-70705000D01*
X77700000Y-71035000D01*
G37*
%TO.C,BT1*%
X110750000Y-70200000D02*
X110750000Y-75800000D01*
X110750000Y-75800000D02*
X115820000Y-75800000D01*
X115820000Y-66650000D02*
X115820000Y-70200000D01*
X115820000Y-70200000D02*
X110750000Y-70200000D01*
X115820000Y-77250000D02*
X115820000Y-75800000D01*
X122700000Y-83630000D02*
X115820000Y-77250000D01*
X130300000Y-83630000D02*
X122700000Y-83630000D01*
X130300000Y-83630000D02*
X137180000Y-77250000D01*
X137180000Y-66720000D02*
X137180000Y-70200000D01*
X137180000Y-70200000D02*
X142250000Y-70200000D01*
X137180000Y-75800000D02*
X142250000Y-75800000D01*
X137180000Y-77250000D02*
X137180000Y-75800000D01*
X142250000Y-70200000D02*
X142250000Y-75800000D01*
X115820000Y-66700000D02*
G75*
G02*
X121183548Y-64507247I3130000J0D01*
G01*
X131669999Y-64669999D02*
G75*
G02*
X121193578Y-64532608I-5169999J5270000D01*
G01*
X131680001Y-64660001D02*
G75*
G02*
X137177059Y-66700000I2369999J-2040000D01*
G01*
%TO.C,R2*%
X82772936Y-84765000D02*
X83227064Y-84765000D01*
X82772936Y-86235000D02*
X83227064Y-86235000D01*
%TO.C,R3*%
X108227064Y-84765000D02*
X107772936Y-84765000D01*
X108227064Y-86235000D02*
X107772936Y-86235000D01*
%TO.C,R4*%
X125227064Y-84765000D02*
X124772936Y-84765000D01*
X125227064Y-86235000D02*
X124772936Y-86235000D01*
%TO.C,C1*%
X75261252Y-68865000D02*
X74738748Y-68865000D01*
X75261252Y-70335000D02*
X74738748Y-70335000D01*
%TO.C,R1*%
X75227064Y-84765000D02*
X74772936Y-84765000D01*
X75227064Y-86235000D02*
X74772936Y-86235000D01*
%TD*%
M02*
