%TF.GenerationSoftware,KiCad,Pcbnew,9.0.2*%
%TF.CreationDate,2025-05-22T18:28:57+02:00*%
%TF.ProjectId,blinky,626c696e-6b79-42e6-9b69-6361645f7063,rev?*%
%TF.SameCoordinates,Original*%
%TF.FileFunction,Copper,L2,Bot*%
%TF.FilePolarity,Positive*%
%FSLAX46Y46*%
G04 Gerber Fmt 4.6, Leading zero omitted, Abs format (unit mm)*
G04 Created by KiCad (PCBNEW 9.0.2) date 2025-05-22 18:28:57*
%MOMM*%
%LPD*%
G01*
G04 APERTURE LIST*
G04 Aperture macros list*
%AMRoundRect*
0 Rectangle with rounded corners*
0 $1 Rounding radius*
0 $2 $3 $4 $5 $6 $7 $8 $9 X,Y pos of 4 corners*
0 Add a 4 corners polygon primitive as box body*
4,1,4,$2,$3,$4,$5,$6,$7,$8,$9,$2,$3,0*
0 Add four circle primitives for the rounded corners*
1,1,$1+$1,$2,$3*
1,1,$1+$1,$4,$5*
1,1,$1+$1,$6,$7*
1,1,$1+$1,$8,$9*
0 Add four rect primitives between the rounded corners*
20,1,$1+$1,$2,$3,$4,$5,0*
20,1,$1+$1,$4,$5,$6,$7,0*
20,1,$1+$1,$6,$7,$8,$9,0*
20,1,$1+$1,$8,$9,$2,$3,0*%
G04 Aperture macros list end*
%TA.AperFunction,SMDPad,CuDef*%
%ADD10RoundRect,0.250000X0.350000X0.450000X-0.350000X0.450000X-0.350000X-0.450000X0.350000X-0.450000X0*%
%TD*%
%TA.AperFunction,SMDPad,CuDef*%
%ADD11RoundRect,0.150000X0.825000X0.150000X-0.825000X0.150000X-0.825000X-0.150000X0.825000X-0.150000X0*%
%TD*%
%TA.AperFunction,SMDPad,CuDef*%
%ADD12R,5.000000X5.000000*%
%TD*%
%TA.AperFunction,SMDPad,CuDef*%
%ADD13R,4.000000X4.000000*%
%TD*%
%TA.AperFunction,SMDPad,CuDef*%
%ADD14RoundRect,0.250000X-0.350000X-0.450000X0.350000X-0.450000X0.350000X0.450000X-0.350000X0.450000X0*%
%TD*%
%TA.AperFunction,ConnectorPad*%
%ADD15C,0.787400*%
%TD*%
%TA.AperFunction,SMDPad,CuDef*%
%ADD16RoundRect,0.250000X-0.337500X-0.475000X0.337500X-0.475000X0.337500X0.475000X-0.337500X0.475000X0*%
%TD*%
%TA.AperFunction,ViaPad*%
%ADD17C,0.600000*%
%TD*%
%TA.AperFunction,Conductor*%
%ADD18C,0.200000*%
%TD*%
%TA.AperFunction,Conductor*%
%ADD19C,0.600000*%
%TD*%
%TA.AperFunction,Conductor*%
%ADD20C,0.500000*%
%TD*%
G04 APERTURE END LIST*
D10*
%TO.P,R5,1*%
%TO.N,Net-(D5-K)*%
X134100000Y-85500000D03*
%TO.P,R5,2*%
%TO.N,GND*%
X132100000Y-85500000D03*
%TD*%
D11*
%TO.P,U1,1,~{RESET}/PB5*%
%TO.N,/RST*%
X77475000Y-71595000D03*
%TO.P,U1,2,PB3*%
%TO.N,Net-(D5-A)*%
X77475000Y-72865000D03*
%TO.P,U1,3,PB4*%
%TO.N,Net-(D4-A)*%
X77475000Y-74135000D03*
%TO.P,U1,4,GND*%
%TO.N,GND*%
X77475000Y-75405000D03*
%TO.P,U1,5,PB0*%
%TO.N,/MOSI*%
X72525000Y-75405000D03*
%TO.P,U1,6,PB1*%
%TO.N,/MISO*%
X72525000Y-74135000D03*
%TO.P,U1,7,PB2*%
%TO.N,/SCK*%
X72525000Y-72865000D03*
%TO.P,U1,8,VCC*%
%TO.N,+BATT*%
X72525000Y-71595000D03*
%TD*%
D12*
%TO.P,BT1,0*%
%TO.N,N/C*%
X139450000Y-73000000D03*
%TO.P,BT1,1,+*%
%TO.N,+BATT*%
X113550000Y-73000000D03*
D13*
%TO.P,BT1,2,-*%
%TO.N,GND*%
X126500000Y-73000000D03*
%TD*%
D10*
%TO.P,R2,1*%
%TO.N,Net-(D2-K)*%
X84000000Y-85500000D03*
%TO.P,R2,2*%
%TO.N,GND*%
X82000000Y-85500000D03*
%TD*%
D14*
%TO.P,R3,1*%
%TO.N,Net-(D3-K)*%
X107000000Y-85500000D03*
%TO.P,R3,2*%
%TO.N,GND*%
X109000000Y-85500000D03*
%TD*%
%TO.P,R4,1*%
%TO.N,Net-(D4-K)*%
X124000000Y-85500000D03*
%TO.P,R4,2*%
%TO.N,GND*%
X126000000Y-85500000D03*
%TD*%
D15*
%TO.P,J1,1,MISO*%
%TO.N,/MISO*%
X67755000Y-74150000D03*
%TO.P,J1,2,VCC*%
%TO.N,+BATT*%
X67755000Y-71610000D03*
%TO.P,J1,3,SCK*%
%TO.N,/SCK*%
X67755000Y-72880000D03*
%TO.P,J1,4,MOSI*%
%TO.N,/MOSI*%
X67750000Y-75420000D03*
%TO.P,J1,5,~{RST}*%
%TO.N,/RST*%
X67750000Y-76690000D03*
%TO.P,J1,6,GND*%
%TO.N,GND*%
X67750000Y-70340000D03*
%TD*%
D16*
%TO.P,C1,1*%
%TO.N,+BATT*%
X73962500Y-69600000D03*
%TO.P,C1,2*%
%TO.N,GND*%
X76037500Y-69600000D03*
%TD*%
D14*
%TO.P,R1,1*%
%TO.N,Net-(D1-K)*%
X74000000Y-85500000D03*
%TO.P,R1,2*%
%TO.N,GND*%
X76000000Y-85500000D03*
%TD*%
D17*
%TO.N,GND*%
X141600000Y-64100000D03*
X67100000Y-63900000D03*
%TO.N,Net-(D1-K)*%
X72800000Y-85500000D03*
%TO.N,Net-(D2-K)*%
X85200000Y-85500000D03*
%TO.N,Net-(D3-K)*%
X105900000Y-85500000D03*
%TO.N,Net-(D4-K)*%
X122900000Y-85500000D03*
%TO.N,Net-(D4-A)*%
X118600000Y-85500000D03*
%TO.N,Net-(D5-K)*%
X135300000Y-85500000D03*
%TO.N,Net-(D5-A)*%
X139600000Y-85500000D03*
%TO.N,/MOSI*%
X68300000Y-85500000D03*
%TO.N,/MISO*%
X89500000Y-85500000D03*
%TO.N,/SCK*%
X101400000Y-85500000D03*
%TO.N,/RST*%
X75000000Y-71650000D03*
X69975000Y-76675000D03*
%TD*%
D18*
%TO.N,+BATT*%
X72525000Y-71595000D02*
X72372300Y-71442300D01*
D19*
X73862500Y-63437500D02*
X73862500Y-69500000D01*
D20*
X72525000Y-71595000D02*
X72525000Y-69750000D01*
D19*
X113550000Y-73000000D02*
X113550000Y-63650000D01*
D20*
X72675000Y-69600000D02*
X73962500Y-69600000D01*
D18*
X67925000Y-71595000D02*
X72525000Y-71595000D01*
D19*
X111900000Y-62000000D02*
X75300000Y-62000000D01*
D20*
X72525000Y-69750000D02*
X72675000Y-69600000D01*
D18*
X67755000Y-71425000D02*
X67925000Y-71595000D01*
D19*
X75300000Y-62000000D02*
X73862500Y-63437500D01*
X113550000Y-63650000D02*
X111900000Y-62000000D01*
D18*
%TO.N,Net-(D1-K)*%
X72800000Y-85500000D02*
X74000000Y-85500000D01*
%TO.N,Net-(D2-K)*%
X85200000Y-85500000D02*
X84000000Y-85500000D01*
%TO.N,Net-(D3-K)*%
X107000000Y-85500000D02*
X105900001Y-85500000D01*
%TO.N,Net-(D4-K)*%
X122900000Y-85500000D02*
X123999999Y-85500000D01*
%TO.N,Net-(D4-A)*%
X114000000Y-85500000D02*
X102635000Y-74135000D01*
X118600000Y-85500000D02*
X114000000Y-85500000D01*
X102635000Y-74135000D02*
X77475000Y-74135000D01*
%TO.N,Net-(D5-K)*%
X135300000Y-85500000D02*
X134000000Y-85500000D01*
%TO.N,Net-(D5-A)*%
X139600000Y-84700000D02*
X138100000Y-83200000D01*
X103365000Y-72865000D02*
X77475000Y-72865000D01*
X113700000Y-83200000D02*
X103365000Y-72865000D01*
X138100000Y-83200000D02*
X113700000Y-83200000D01*
X139600000Y-85500000D02*
X139600000Y-84700000D01*
%TO.N,/MOSI*%
X72525000Y-79475000D02*
X72525000Y-75405000D01*
X72505000Y-75425000D02*
X72525000Y-75405000D01*
X68300000Y-85500000D02*
X68300000Y-83700000D01*
X67750000Y-75235000D02*
X67940000Y-75425000D01*
X68300000Y-83700000D02*
X72525000Y-79475000D01*
X67940000Y-75425000D02*
X72505000Y-75425000D01*
%TO.N,/MISO*%
X74700000Y-79700000D02*
X74700000Y-75200000D01*
X67925000Y-74135000D02*
X72525000Y-74135000D01*
X74700000Y-75200000D02*
X73635000Y-74135000D01*
X89500000Y-85500000D02*
X89500000Y-83500000D01*
X77000000Y-82000000D02*
X74700000Y-79700000D01*
X89500000Y-83500000D02*
X88000000Y-82000000D01*
X73635000Y-74135000D02*
X72525000Y-74135000D01*
X88000000Y-82000000D02*
X77000000Y-82000000D01*
X67755000Y-73965000D02*
X67925000Y-74135000D01*
%TO.N,/SCK*%
X98500000Y-85500000D02*
X93900000Y-80900000D01*
X101400000Y-85500000D02*
X98500000Y-85500000D01*
X67925000Y-72865000D02*
X72525000Y-72865000D01*
X75800000Y-74800000D02*
X73865000Y-72865000D01*
X93900000Y-80900000D02*
X77600000Y-80900000D01*
X77600000Y-80900000D02*
X75800000Y-79100000D01*
X73865000Y-72865000D02*
X72525000Y-72865000D01*
X75800000Y-79100000D02*
X75800000Y-74800000D01*
X67755000Y-72695000D02*
X67925000Y-72865000D01*
%TO.N,/RST*%
X75000000Y-71650000D02*
X75055000Y-71595000D01*
X69975000Y-76675000D02*
X69960000Y-76690000D01*
X75055000Y-71595000D02*
X77475000Y-71595000D01*
X69960000Y-76690000D02*
X67750000Y-76690000D01*
%TD*%
%TA.AperFunction,Conductor*%
%TO.N,GND*%
G36*
X141003736Y-59000726D02*
G01*
X141293796Y-59018271D01*
X141308659Y-59020076D01*
X141590798Y-59071780D01*
X141605335Y-59075363D01*
X141879172Y-59160695D01*
X141893163Y-59166000D01*
X142154743Y-59283727D01*
X142167989Y-59290680D01*
X142413465Y-59439075D01*
X142425776Y-59447573D01*
X142651573Y-59624473D01*
X142662781Y-59634403D01*
X142865596Y-59837218D01*
X142875526Y-59848426D01*
X142995481Y-60001538D01*
X143052422Y-60074217D01*
X143060928Y-60086540D01*
X143209316Y-60332004D01*
X143216275Y-60345263D01*
X143333997Y-60606831D01*
X143339306Y-60620832D01*
X143424635Y-60894663D01*
X143428219Y-60909201D01*
X143479923Y-61191340D01*
X143481728Y-61206205D01*
X143499274Y-61496263D01*
X143499500Y-61503750D01*
X143499500Y-85496249D01*
X143499274Y-85503736D01*
X143481728Y-85793794D01*
X143479923Y-85808659D01*
X143428219Y-86090798D01*
X143424635Y-86105336D01*
X143339306Y-86379167D01*
X143333997Y-86393168D01*
X143216275Y-86654736D01*
X143209316Y-86667995D01*
X143060928Y-86913459D01*
X143052422Y-86925782D01*
X142875526Y-87151573D01*
X142865596Y-87162781D01*
X142662781Y-87365596D01*
X142651573Y-87375526D01*
X142425782Y-87552422D01*
X142413459Y-87560928D01*
X142167995Y-87709316D01*
X142154736Y-87716275D01*
X141893168Y-87833997D01*
X141879167Y-87839306D01*
X141605336Y-87924635D01*
X141590798Y-87928219D01*
X141308659Y-87979923D01*
X141293794Y-87981728D01*
X141003736Y-87999274D01*
X140996249Y-87999500D01*
X67003751Y-87999500D01*
X66996264Y-87999274D01*
X66706205Y-87981728D01*
X66691340Y-87979923D01*
X66409201Y-87928219D01*
X66394663Y-87924635D01*
X66120832Y-87839306D01*
X66106831Y-87833997D01*
X65845263Y-87716275D01*
X65832004Y-87709316D01*
X65586540Y-87560928D01*
X65574217Y-87552422D01*
X65348426Y-87375526D01*
X65337218Y-87365596D01*
X65134403Y-87162781D01*
X65124473Y-87151573D01*
X64947573Y-86925776D01*
X64939075Y-86913465D01*
X64790680Y-86667989D01*
X64783727Y-86654743D01*
X64666000Y-86393163D01*
X64660693Y-86379167D01*
X64654534Y-86359403D01*
X64575363Y-86105335D01*
X64571780Y-86090798D01*
X64555136Y-85999973D01*
X64520075Y-85808657D01*
X64518271Y-85793794D01*
X64500726Y-85503736D01*
X64500500Y-85496249D01*
X64500500Y-75331924D01*
X66855800Y-75331924D01*
X66855800Y-75508075D01*
X66890161Y-75680821D01*
X66890163Y-75680829D01*
X66957568Y-75843560D01*
X66957573Y-75843569D01*
X67052816Y-75986109D01*
X67073694Y-76052786D01*
X67055210Y-76120167D01*
X67052816Y-76123891D01*
X66957573Y-76266430D01*
X66957568Y-76266439D01*
X66890163Y-76429170D01*
X66890161Y-76429178D01*
X66855800Y-76601924D01*
X66855800Y-76778075D01*
X66890161Y-76950821D01*
X66890163Y-76950829D01*
X66957568Y-77113560D01*
X66957573Y-77113569D01*
X67055428Y-77260018D01*
X67055431Y-77260022D01*
X67179977Y-77384568D01*
X67179981Y-77384571D01*
X67326430Y-77482426D01*
X67326436Y-77482429D01*
X67326437Y-77482430D01*
X67489171Y-77549837D01*
X67661924Y-77584199D01*
X67661928Y-77584200D01*
X67661929Y-77584200D01*
X67838072Y-77584200D01*
X67838073Y-77584199D01*
X68010829Y-77549837D01*
X68173563Y-77482430D01*
X68320019Y-77384571D01*
X68377772Y-77326817D01*
X68439093Y-77293334D01*
X68465452Y-77290500D01*
X69417683Y-77290500D01*
X69484722Y-77310185D01*
X69486574Y-77311398D01*
X69595814Y-77384390D01*
X69595827Y-77384397D01*
X69741498Y-77444735D01*
X69741503Y-77444737D01*
X69896153Y-77475499D01*
X69896156Y-77475500D01*
X69896158Y-77475500D01*
X70053844Y-77475500D01*
X70053845Y-77475499D01*
X70208497Y-77444737D01*
X70321166Y-77398067D01*
X70354172Y-77384397D01*
X70354172Y-77384396D01*
X70354179Y-77384394D01*
X70485289Y-77296789D01*
X70596789Y-77185289D01*
X70684394Y-77054179D01*
X70744737Y-76908497D01*
X70775500Y-76753842D01*
X70775500Y-76596158D01*
X70775500Y-76596155D01*
X70775499Y-76596153D01*
X70744738Y-76441510D01*
X70744737Y-76441503D01*
X70739629Y-76429170D01*
X70684397Y-76295827D01*
X70684395Y-76295823D01*
X70684394Y-76295821D01*
X70658394Y-76256909D01*
X70632657Y-76218391D01*
X70611779Y-76151714D01*
X70630263Y-76084334D01*
X70682242Y-76037643D01*
X70735759Y-76025500D01*
X71199191Y-76025500D01*
X71266230Y-76045185D01*
X71286872Y-76061819D01*
X71298129Y-76073076D01*
X71298133Y-76073079D01*
X71298135Y-76073081D01*
X71439602Y-76156744D01*
X71481224Y-76168836D01*
X71597426Y-76202597D01*
X71597429Y-76202597D01*
X71597431Y-76202598D01*
X71634306Y-76205500D01*
X71800500Y-76205500D01*
X71867539Y-76225185D01*
X71913294Y-76277989D01*
X71924500Y-76329500D01*
X71924500Y-79174902D01*
X71904815Y-79241941D01*
X71888181Y-79262583D01*
X67819481Y-83331282D01*
X67819479Y-83331285D01*
X67769361Y-83418094D01*
X67769359Y-83418096D01*
X67740425Y-83468209D01*
X67740424Y-83468210D01*
X67740423Y-83468215D01*
X67699499Y-83620943D01*
X67699499Y-83620945D01*
X67699499Y-83789046D01*
X67699500Y-83789059D01*
X67699500Y-84920234D01*
X67679815Y-84987273D01*
X67678602Y-84989125D01*
X67590609Y-85120814D01*
X67590602Y-85120827D01*
X67530264Y-85266498D01*
X67530261Y-85266510D01*
X67499500Y-85421153D01*
X67499500Y-85578846D01*
X67530261Y-85733489D01*
X67530264Y-85733501D01*
X67590602Y-85879172D01*
X67590609Y-85879185D01*
X67678210Y-86010288D01*
X67678213Y-86010292D01*
X67789707Y-86121786D01*
X67789711Y-86121789D01*
X67920814Y-86209390D01*
X67920827Y-86209397D01*
X68065011Y-86269119D01*
X68066503Y-86269737D01*
X68211631Y-86298605D01*
X68221153Y-86300499D01*
X68221156Y-86300500D01*
X68221158Y-86300500D01*
X68378844Y-86300500D01*
X68378845Y-86300499D01*
X68533497Y-86269737D01*
X68679179Y-86209394D01*
X68810289Y-86121789D01*
X68921789Y-86010289D01*
X69009394Y-85879179D01*
X69069737Y-85733497D01*
X69100500Y-85578842D01*
X69100500Y-85421158D01*
X69100500Y-85421155D01*
X69100499Y-85421153D01*
X71999500Y-85421153D01*
X71999500Y-85578846D01*
X72030261Y-85733489D01*
X72030264Y-85733501D01*
X72090602Y-85879172D01*
X72090609Y-85879185D01*
X72178210Y-86010288D01*
X72178213Y-86010292D01*
X72289707Y-86121786D01*
X72289711Y-86121789D01*
X72420814Y-86209390D01*
X72420827Y-86209397D01*
X72565011Y-86269119D01*
X72566503Y-86269737D01*
X72711631Y-86298605D01*
X72721153Y-86300499D01*
X72721156Y-86300500D01*
X72721158Y-86300500D01*
X72878843Y-86300500D01*
X72881455Y-86299980D01*
X72888362Y-86298606D01*
X72957953Y-86304828D01*
X73013134Y-86347686D01*
X73018100Y-86355124D01*
X73057285Y-86418652D01*
X73057288Y-86418656D01*
X73181344Y-86542712D01*
X73330666Y-86634814D01*
X73497203Y-86689999D01*
X73599991Y-86700500D01*
X74400008Y-86700499D01*
X74400016Y-86700498D01*
X74400019Y-86700498D01*
X74456302Y-86694748D01*
X74502797Y-86689999D01*
X74669334Y-86634814D01*
X74818656Y-86542712D01*
X74912675Y-86448692D01*
X74973994Y-86415210D01*
X75043686Y-86420194D01*
X75088034Y-86448695D01*
X75181654Y-86542315D01*
X75330875Y-86634356D01*
X75330880Y-86634358D01*
X75497302Y-86689505D01*
X75497309Y-86689506D01*
X75600019Y-86699999D01*
X75749999Y-86699999D01*
X76250000Y-86699999D01*
X76399972Y-86699999D01*
X76399986Y-86699998D01*
X76502697Y-86689505D01*
X76669119Y-86634358D01*
X76669124Y-86634356D01*
X76818345Y-86542315D01*
X76942315Y-86418345D01*
X77034356Y-86269124D01*
X77034358Y-86269119D01*
X77089505Y-86102697D01*
X77089506Y-86102690D01*
X77099999Y-85999986D01*
X80900001Y-85999986D01*
X80910494Y-86102697D01*
X80965641Y-86269119D01*
X80965643Y-86269124D01*
X81057684Y-86418345D01*
X81181654Y-86542315D01*
X81330875Y-86634356D01*
X81330880Y-86634358D01*
X81497302Y-86689505D01*
X81497309Y-86689506D01*
X81600019Y-86699999D01*
X81749999Y-86699999D01*
X81750000Y-86699998D01*
X81750000Y-85750000D01*
X80900001Y-85750000D01*
X80900001Y-85999986D01*
X77099999Y-85999986D01*
X77100000Y-85999973D01*
X77100000Y-85750000D01*
X76250000Y-85750000D01*
X76250000Y-86699999D01*
X75749999Y-86699999D01*
X75750000Y-86699998D01*
X75750000Y-85250000D01*
X76250000Y-85250000D01*
X77099999Y-85250000D01*
X77099999Y-85000029D01*
X77099998Y-85000013D01*
X80900000Y-85000013D01*
X80900000Y-85250000D01*
X81750000Y-85250000D01*
X81750000Y-84300000D01*
X82250000Y-84300000D01*
X82250000Y-86699999D01*
X82399972Y-86699999D01*
X82399986Y-86699998D01*
X82502697Y-86689505D01*
X82669119Y-86634358D01*
X82669124Y-86634356D01*
X82818342Y-86542317D01*
X82911964Y-86448695D01*
X82973287Y-86415210D01*
X83042979Y-86420194D01*
X83087327Y-86448695D01*
X83181344Y-86542712D01*
X83330666Y-86634814D01*
X83497203Y-86689999D01*
X83599991Y-86700500D01*
X84400008Y-86700499D01*
X84400016Y-86700498D01*
X84400019Y-86700498D01*
X84456302Y-86694748D01*
X84502797Y-86689999D01*
X84669334Y-86634814D01*
X84818656Y-86542712D01*
X84942712Y-86418656D01*
X84981898Y-86355123D01*
X85033844Y-86308400D01*
X85102807Y-86297177D01*
X85111619Y-86298602D01*
X85121158Y-86300500D01*
X85278844Y-86300500D01*
X85278845Y-86300499D01*
X85433497Y-86269737D01*
X85579179Y-86209394D01*
X85710289Y-86121789D01*
X85821789Y-86010289D01*
X85909394Y-85879179D01*
X85969737Y-85733497D01*
X86000500Y-85578842D01*
X86000500Y-85421158D01*
X86000500Y-85421155D01*
X86000499Y-85421153D01*
X85969738Y-85266510D01*
X85969737Y-85266503D01*
X85962901Y-85250000D01*
X85909397Y-85120827D01*
X85909390Y-85120814D01*
X85821789Y-84989711D01*
X85821786Y-84989707D01*
X85710292Y-84878213D01*
X85710288Y-84878210D01*
X85579185Y-84790609D01*
X85579172Y-84790602D01*
X85433501Y-84730264D01*
X85433489Y-84730261D01*
X85278845Y-84699500D01*
X85278842Y-84699500D01*
X85121158Y-84699500D01*
X85121149Y-84699500D01*
X85111617Y-84701396D01*
X85042026Y-84695163D01*
X84986852Y-84652295D01*
X84981897Y-84644874D01*
X84967137Y-84620944D01*
X84942712Y-84581344D01*
X84818656Y-84457288D01*
X84669334Y-84365186D01*
X84502797Y-84310001D01*
X84502795Y-84310000D01*
X84400010Y-84299500D01*
X83599998Y-84299500D01*
X83599980Y-84299501D01*
X83497203Y-84310000D01*
X83497200Y-84310001D01*
X83330668Y-84365185D01*
X83330663Y-84365187D01*
X83181345Y-84457287D01*
X83087327Y-84551305D01*
X83026003Y-84584789D01*
X82956312Y-84579805D01*
X82911965Y-84551304D01*
X82818345Y-84457684D01*
X82669124Y-84365643D01*
X82669119Y-84365641D01*
X82502697Y-84310494D01*
X82502690Y-84310493D01*
X82399986Y-84300000D01*
X82250000Y-84300000D01*
X81750000Y-84300000D01*
X81600027Y-84300000D01*
X81600012Y-84300001D01*
X81497302Y-84310494D01*
X81330880Y-84365641D01*
X81330875Y-84365643D01*
X81181654Y-84457684D01*
X81057684Y-84581654D01*
X80965643Y-84730875D01*
X80965641Y-84730880D01*
X80910494Y-84897302D01*
X80910493Y-84897309D01*
X80900000Y-85000013D01*
X77099998Y-85000013D01*
X77099998Y-85000012D01*
X77089505Y-84897302D01*
X77034358Y-84730880D01*
X77034356Y-84730875D01*
X76942315Y-84581654D01*
X76818345Y-84457684D01*
X76669124Y-84365643D01*
X76669119Y-84365641D01*
X76502697Y-84310494D01*
X76502690Y-84310493D01*
X76399986Y-84300000D01*
X76250000Y-84300000D01*
X76250000Y-85250000D01*
X75750000Y-85250000D01*
X75750000Y-84300000D01*
X75600027Y-84300000D01*
X75600012Y-84300001D01*
X75497302Y-84310494D01*
X75330880Y-84365641D01*
X75330875Y-84365643D01*
X75181657Y-84457682D01*
X75088034Y-84551305D01*
X75026710Y-84584789D01*
X74957019Y-84579805D01*
X74912672Y-84551304D01*
X74818657Y-84457289D01*
X74818656Y-84457288D01*
X74669334Y-84365186D01*
X74502797Y-84310001D01*
X74502795Y-84310000D01*
X74400010Y-84299500D01*
X73599998Y-84299500D01*
X73599980Y-84299501D01*
X73497203Y-84310000D01*
X73497200Y-84310001D01*
X73330668Y-84365185D01*
X73330663Y-84365187D01*
X73181342Y-84457289D01*
X73057288Y-84581343D01*
X73057285Y-84581347D01*
X73018101Y-84644875D01*
X72966153Y-84691600D01*
X72897191Y-84702821D01*
X72888379Y-84701397D01*
X72878842Y-84699500D01*
X72721158Y-84699500D01*
X72721155Y-84699500D01*
X72566510Y-84730261D01*
X72566498Y-84730264D01*
X72420827Y-84790602D01*
X72420814Y-84790609D01*
X72289711Y-84878210D01*
X72289707Y-84878213D01*
X72178213Y-84989707D01*
X72178210Y-84989711D01*
X72090609Y-85120814D01*
X72090602Y-85120827D01*
X72030264Y-85266498D01*
X72030261Y-85266510D01*
X71999500Y-85421153D01*
X69100499Y-85421153D01*
X69069738Y-85266510D01*
X69069737Y-85266503D01*
X69062901Y-85250000D01*
X69009397Y-85120827D01*
X69009390Y-85120814D01*
X68921398Y-84989125D01*
X68900520Y-84922447D01*
X68900500Y-84920234D01*
X68900500Y-84000096D01*
X68920185Y-83933057D01*
X68936814Y-83912420D01*
X72893713Y-79955521D01*
X72893716Y-79955520D01*
X73005520Y-79843716D01*
X73055639Y-79756904D01*
X73084577Y-79706785D01*
X73125500Y-79554058D01*
X73125500Y-79395943D01*
X73125500Y-76329500D01*
X73145185Y-76262461D01*
X73197989Y-76216706D01*
X73249500Y-76205500D01*
X73415686Y-76205500D01*
X73415694Y-76205500D01*
X73452569Y-76202598D01*
X73452571Y-76202597D01*
X73452573Y-76202597D01*
X73494191Y-76190505D01*
X73610398Y-76156744D01*
X73751865Y-76073081D01*
X73868081Y-75956865D01*
X73868766Y-75955705D01*
X73869540Y-75954982D01*
X73872861Y-75950702D01*
X73873551Y-75951237D01*
X73919833Y-75908022D01*
X73988574Y-75895515D01*
X74053164Y-75922158D01*
X74093097Y-75979492D01*
X74099500Y-76018824D01*
X74099500Y-79613330D01*
X74099499Y-79613348D01*
X74099499Y-79779054D01*
X74099498Y-79779054D01*
X74140423Y-79931785D01*
X74154127Y-79955520D01*
X74197695Y-80030984D01*
X74219479Y-80068715D01*
X74338349Y-80187585D01*
X74338355Y-80187590D01*
X76515139Y-82364374D01*
X76515149Y-82364385D01*
X76519479Y-82368715D01*
X76519480Y-82368716D01*
X76631284Y-82480520D01*
X76718095Y-82530639D01*
X76718097Y-82530641D01*
X76768213Y-82559576D01*
X76768215Y-82559577D01*
X76920942Y-82600500D01*
X76920943Y-82600500D01*
X87699903Y-82600500D01*
X87766942Y-82620185D01*
X87787584Y-82636819D01*
X88863181Y-83712416D01*
X88896666Y-83773739D01*
X88899500Y-83800097D01*
X88899500Y-84920234D01*
X88879815Y-84987273D01*
X88878602Y-84989125D01*
X88790609Y-85120814D01*
X88790602Y-85120827D01*
X88730264Y-85266498D01*
X88730261Y-85266510D01*
X88699500Y-85421153D01*
X88699500Y-85578846D01*
X88730261Y-85733489D01*
X88730264Y-85733501D01*
X88790602Y-85879172D01*
X88790609Y-85879185D01*
X88878210Y-86010288D01*
X88878213Y-86010292D01*
X88989707Y-86121786D01*
X88989711Y-86121789D01*
X89120814Y-86209390D01*
X89120827Y-86209397D01*
X89265011Y-86269119D01*
X89266503Y-86269737D01*
X89411631Y-86298605D01*
X89421153Y-86300499D01*
X89421156Y-86300500D01*
X89421158Y-86300500D01*
X89578844Y-86300500D01*
X89578845Y-86300499D01*
X89733497Y-86269737D01*
X89879179Y-86209394D01*
X90010289Y-86121789D01*
X90121789Y-86010289D01*
X90209394Y-85879179D01*
X90269737Y-85733497D01*
X90300500Y-85578842D01*
X90300500Y-85421158D01*
X90300500Y-85421155D01*
X90300499Y-85421153D01*
X90269738Y-85266510D01*
X90269737Y-85266503D01*
X90262901Y-85250000D01*
X90209397Y-85120827D01*
X90209390Y-85120814D01*
X90121398Y-84989125D01*
X90100520Y-84922447D01*
X90100500Y-84920234D01*
X90100500Y-83420945D01*
X90100500Y-83420943D01*
X90059577Y-83268216D01*
X90031440Y-83219480D01*
X89980524Y-83131290D01*
X89980521Y-83131286D01*
X89980520Y-83131284D01*
X89868716Y-83019480D01*
X89868715Y-83019479D01*
X89864385Y-83015149D01*
X89864374Y-83015139D01*
X88561416Y-81712181D01*
X88527931Y-81650858D01*
X88532915Y-81581166D01*
X88574787Y-81525233D01*
X88640251Y-81500816D01*
X88649097Y-81500500D01*
X93599903Y-81500500D01*
X93666942Y-81520185D01*
X93687584Y-81536819D01*
X98015139Y-85864374D01*
X98015149Y-85864385D01*
X98019479Y-85868715D01*
X98019480Y-85868716D01*
X98131284Y-85980520D01*
X98131286Y-85980521D01*
X98131290Y-85980524D01*
X98189708Y-86014251D01*
X98268216Y-86059577D01*
X98380019Y-86089534D01*
X98420942Y-86100500D01*
X98420943Y-86100500D01*
X100820234Y-86100500D01*
X100887273Y-86120185D01*
X100889125Y-86121398D01*
X101020814Y-86209390D01*
X101020827Y-86209397D01*
X101165011Y-86269119D01*
X101166503Y-86269737D01*
X101311631Y-86298605D01*
X101321153Y-86300499D01*
X101321156Y-86300500D01*
X101321158Y-86300500D01*
X101478844Y-86300500D01*
X101478845Y-86300499D01*
X101633497Y-86269737D01*
X101779179Y-86209394D01*
X101910289Y-86121789D01*
X102021789Y-86010289D01*
X102109394Y-85879179D01*
X102169737Y-85733497D01*
X102200500Y-85578842D01*
X102200500Y-85421158D01*
X102200500Y-85421155D01*
X102200499Y-85421153D01*
X105099500Y-85421153D01*
X105099500Y-85578846D01*
X105130261Y-85733489D01*
X105130264Y-85733501D01*
X105190602Y-85879172D01*
X105190609Y-85879185D01*
X105278210Y-86010288D01*
X105278213Y-86010292D01*
X105389707Y-86121786D01*
X105389711Y-86121789D01*
X105520814Y-86209390D01*
X105520827Y-86209397D01*
X105665011Y-86269119D01*
X105666503Y-86269737D01*
X105811631Y-86298605D01*
X105821153Y-86300499D01*
X105821156Y-86300500D01*
X105915202Y-86300500D01*
X105982241Y-86320185D01*
X106020739Y-86359401D01*
X106057288Y-86418656D01*
X106181344Y-86542712D01*
X106330666Y-86634814D01*
X106497203Y-86689999D01*
X106599991Y-86700500D01*
X107400008Y-86700499D01*
X107400016Y-86700498D01*
X107400019Y-86700498D01*
X107456302Y-86694748D01*
X107502797Y-86689999D01*
X107669334Y-86634814D01*
X107818656Y-86542712D01*
X107912675Y-86448692D01*
X107973994Y-86415210D01*
X108043686Y-86420194D01*
X108088034Y-86448695D01*
X108181654Y-86542315D01*
X108330875Y-86634356D01*
X108330880Y-86634358D01*
X108497302Y-86689505D01*
X108497309Y-86689506D01*
X108600019Y-86699999D01*
X108749999Y-86699999D01*
X109250000Y-86699999D01*
X109399972Y-86699999D01*
X109399986Y-86699998D01*
X109502697Y-86689505D01*
X109669119Y-86634358D01*
X109669124Y-86634356D01*
X109818345Y-86542315D01*
X109942315Y-86418345D01*
X110034356Y-86269124D01*
X110034358Y-86269119D01*
X110089505Y-86102697D01*
X110089506Y-86102690D01*
X110099999Y-85999986D01*
X110100000Y-85999973D01*
X110100000Y-85750000D01*
X109250000Y-85750000D01*
X109250000Y-86699999D01*
X108749999Y-86699999D01*
X108750000Y-86699998D01*
X108750000Y-85250000D01*
X109250000Y-85250000D01*
X110099999Y-85250000D01*
X110099999Y-85000028D01*
X110099998Y-85000013D01*
X110089505Y-84897302D01*
X110034358Y-84730880D01*
X110034356Y-84730875D01*
X109942315Y-84581654D01*
X109818345Y-84457684D01*
X109669124Y-84365643D01*
X109669119Y-84365641D01*
X109502697Y-84310494D01*
X109502690Y-84310493D01*
X109399986Y-84300000D01*
X109250000Y-84300000D01*
X109250000Y-85250000D01*
X108750000Y-85250000D01*
X108750000Y-84300000D01*
X108600027Y-84300000D01*
X108600012Y-84300001D01*
X108497302Y-84310494D01*
X108330880Y-84365641D01*
X108330875Y-84365643D01*
X108181657Y-84457682D01*
X108088034Y-84551305D01*
X108026710Y-84584789D01*
X107957019Y-84579805D01*
X107912672Y-84551304D01*
X107818657Y-84457289D01*
X107818656Y-84457288D01*
X107669334Y-84365186D01*
X107502797Y-84310001D01*
X107502795Y-84310000D01*
X107400010Y-84299500D01*
X106599998Y-84299500D01*
X106599980Y-84299501D01*
X106497203Y-84310000D01*
X106497200Y-84310001D01*
X106330668Y-84365185D01*
X106330663Y-84365187D01*
X106181342Y-84457289D01*
X106057289Y-84581342D01*
X106057288Y-84581344D01*
X106020739Y-84640598D01*
X105968793Y-84687321D01*
X105915202Y-84699500D01*
X105821155Y-84699500D01*
X105666510Y-84730261D01*
X105666498Y-84730264D01*
X105520827Y-84790602D01*
X105520814Y-84790609D01*
X105389711Y-84878210D01*
X105389707Y-84878213D01*
X105278213Y-84989707D01*
X105278210Y-84989711D01*
X105190609Y-85120814D01*
X105190602Y-85120827D01*
X105130264Y-85266498D01*
X105130261Y-85266510D01*
X105099500Y-85421153D01*
X102200499Y-85421153D01*
X102169738Y-85266510D01*
X102169737Y-85266503D01*
X102162901Y-85250000D01*
X102109397Y-85120827D01*
X102109390Y-85120814D01*
X102021789Y-84989711D01*
X102021786Y-84989707D01*
X101910292Y-84878213D01*
X101910288Y-84878210D01*
X101779185Y-84790609D01*
X101779172Y-84790602D01*
X101633501Y-84730264D01*
X101633489Y-84730261D01*
X101478845Y-84699500D01*
X101478842Y-84699500D01*
X101321158Y-84699500D01*
X101321155Y-84699500D01*
X101166510Y-84730261D01*
X101166498Y-84730264D01*
X101020827Y-84790602D01*
X101020814Y-84790609D01*
X100889125Y-84878602D01*
X100822447Y-84899480D01*
X100820234Y-84899500D01*
X98800097Y-84899500D01*
X98733058Y-84879815D01*
X98712416Y-84863181D01*
X94387590Y-80538355D01*
X94387588Y-80538352D01*
X94268717Y-80419481D01*
X94268716Y-80419480D01*
X94181904Y-80369360D01*
X94181904Y-80369359D01*
X94181900Y-80369358D01*
X94131785Y-80340423D01*
X93979057Y-80299499D01*
X93820943Y-80299499D01*
X93813347Y-80299499D01*
X93813331Y-80299500D01*
X77900097Y-80299500D01*
X77833058Y-80279815D01*
X77812416Y-80263181D01*
X76436819Y-78887584D01*
X76403334Y-78826261D01*
X76400500Y-78799903D01*
X76400500Y-76323948D01*
X76420185Y-76256909D01*
X76472989Y-76211154D01*
X76542147Y-76201210D01*
X76546797Y-76201969D01*
X76547518Y-76202100D01*
X76584350Y-76204999D01*
X76584366Y-76205000D01*
X77225000Y-76205000D01*
X77725000Y-76205000D01*
X78365634Y-76205000D01*
X78365649Y-76204999D01*
X78402489Y-76202100D01*
X78402495Y-76202099D01*
X78560193Y-76156283D01*
X78560196Y-76156282D01*
X78701552Y-76072685D01*
X78701561Y-76072678D01*
X78817678Y-75956561D01*
X78817685Y-75956552D01*
X78901281Y-75815198D01*
X78947100Y-75657486D01*
X78947295Y-75655001D01*
X78947295Y-75655000D01*
X77725000Y-75655000D01*
X77725000Y-76205000D01*
X77225000Y-76205000D01*
X77225000Y-75529000D01*
X77244685Y-75461961D01*
X77297489Y-75416206D01*
X77349000Y-75405000D01*
X77475000Y-75405000D01*
X77475000Y-75279000D01*
X77494685Y-75211961D01*
X77547489Y-75166206D01*
X77599000Y-75155000D01*
X78947295Y-75155000D01*
X78947295Y-75154998D01*
X78947100Y-75152513D01*
X78901281Y-74994801D01*
X78858594Y-74922621D01*
X78841411Y-74854897D01*
X78863571Y-74788635D01*
X78918037Y-74744871D01*
X78965326Y-74735500D01*
X102334903Y-74735500D01*
X102401942Y-74755185D01*
X102422584Y-74771819D01*
X113515139Y-85864374D01*
X113515149Y-85864385D01*
X113519479Y-85868715D01*
X113519480Y-85868716D01*
X113631284Y-85980520D01*
X113682845Y-86010288D01*
X113689707Y-86014250D01*
X113689706Y-86014250D01*
X113689709Y-86014251D01*
X113768209Y-86059574D01*
X113768210Y-86059574D01*
X113768215Y-86059577D01*
X113920943Y-86100500D01*
X118020234Y-86100500D01*
X118087273Y-86120185D01*
X118089125Y-86121398D01*
X118220814Y-86209390D01*
X118220827Y-86209397D01*
X118365011Y-86269119D01*
X118366503Y-86269737D01*
X118511631Y-86298605D01*
X118521153Y-86300499D01*
X118521156Y-86300500D01*
X118521158Y-86300500D01*
X118678844Y-86300500D01*
X118678845Y-86300499D01*
X118833497Y-86269737D01*
X118979179Y-86209394D01*
X119110289Y-86121789D01*
X119221789Y-86010289D01*
X119309394Y-85879179D01*
X119369737Y-85733497D01*
X119400500Y-85578842D01*
X119400500Y-85421158D01*
X119400500Y-85421155D01*
X119400499Y-85421153D01*
X122099500Y-85421153D01*
X122099500Y-85578846D01*
X122130261Y-85733489D01*
X122130264Y-85733501D01*
X122190602Y-85879172D01*
X122190609Y-85879185D01*
X122278210Y-86010288D01*
X122278213Y-86010292D01*
X122389707Y-86121786D01*
X122389711Y-86121789D01*
X122520814Y-86209390D01*
X122520827Y-86209397D01*
X122665011Y-86269119D01*
X122666503Y-86269737D01*
X122811631Y-86298605D01*
X122821153Y-86300499D01*
X122821156Y-86300500D01*
X122915202Y-86300500D01*
X122982241Y-86320185D01*
X123020739Y-86359401D01*
X123057288Y-86418656D01*
X123181344Y-86542712D01*
X123330666Y-86634814D01*
X123497203Y-86689999D01*
X123599991Y-86700500D01*
X124400008Y-86700499D01*
X124400016Y-86700498D01*
X124400019Y-86700498D01*
X124456302Y-86694748D01*
X124502797Y-86689999D01*
X124669334Y-86634814D01*
X124818656Y-86542712D01*
X124912675Y-86448692D01*
X124973994Y-86415210D01*
X125043686Y-86420194D01*
X125088034Y-86448695D01*
X125181654Y-86542315D01*
X125330875Y-86634356D01*
X125330880Y-86634358D01*
X125497302Y-86689505D01*
X125497309Y-86689506D01*
X125600019Y-86699999D01*
X125749999Y-86699999D01*
X126250000Y-86699999D01*
X126399972Y-86699999D01*
X126399986Y-86699998D01*
X126502697Y-86689505D01*
X126669119Y-86634358D01*
X126669124Y-86634356D01*
X126818345Y-86542315D01*
X126942315Y-86418345D01*
X127034356Y-86269124D01*
X127034358Y-86269119D01*
X127089505Y-86102697D01*
X127089506Y-86102690D01*
X127099999Y-85999986D01*
X131000001Y-85999986D01*
X131010494Y-86102697D01*
X131065641Y-86269119D01*
X131065643Y-86269124D01*
X131157684Y-86418345D01*
X131281654Y-86542315D01*
X131430875Y-86634356D01*
X131430880Y-86634358D01*
X131597302Y-86689505D01*
X131597309Y-86689506D01*
X131700019Y-86699999D01*
X131849999Y-86699999D01*
X131850000Y-86699998D01*
X131850000Y-85750000D01*
X131000001Y-85750000D01*
X131000001Y-85999986D01*
X127099999Y-85999986D01*
X127100000Y-85999973D01*
X127100000Y-85750000D01*
X126250000Y-85750000D01*
X126250000Y-86699999D01*
X125749999Y-86699999D01*
X125750000Y-86699998D01*
X125750000Y-85250000D01*
X126250000Y-85250000D01*
X127099999Y-85250000D01*
X127099999Y-85000029D01*
X127099998Y-85000013D01*
X131000000Y-85000013D01*
X131000000Y-85250000D01*
X131850000Y-85250000D01*
X131850000Y-84300000D01*
X132350000Y-84300000D01*
X132350000Y-86699999D01*
X132499972Y-86699999D01*
X132499986Y-86699998D01*
X132602697Y-86689505D01*
X132769119Y-86634358D01*
X132769124Y-86634356D01*
X132918342Y-86542317D01*
X133011964Y-86448695D01*
X133073287Y-86415210D01*
X133142979Y-86420194D01*
X133187327Y-86448695D01*
X133281344Y-86542712D01*
X133430666Y-86634814D01*
X133597203Y-86689999D01*
X133699991Y-86700500D01*
X134500008Y-86700499D01*
X134500016Y-86700498D01*
X134500019Y-86700498D01*
X134556302Y-86694748D01*
X134602797Y-86689999D01*
X134769334Y-86634814D01*
X134918656Y-86542712D01*
X135042712Y-86418656D01*
X135081898Y-86355123D01*
X135133844Y-86308400D01*
X135202807Y-86297177D01*
X135211619Y-86298602D01*
X135221158Y-86300500D01*
X135378844Y-86300500D01*
X135378845Y-86300499D01*
X135533497Y-86269737D01*
X135679179Y-86209394D01*
X135810289Y-86121789D01*
X135921789Y-86010289D01*
X136009394Y-85879179D01*
X136069737Y-85733497D01*
X136100500Y-85578842D01*
X136100500Y-85421158D01*
X136100500Y-85421155D01*
X136100499Y-85421153D01*
X136069738Y-85266510D01*
X136069737Y-85266503D01*
X136062901Y-85250000D01*
X136009397Y-85120827D01*
X136009390Y-85120814D01*
X135921789Y-84989711D01*
X135921786Y-84989707D01*
X135810292Y-84878213D01*
X135810288Y-84878210D01*
X135679185Y-84790609D01*
X135679172Y-84790602D01*
X135533501Y-84730264D01*
X135533489Y-84730261D01*
X135378845Y-84699500D01*
X135378842Y-84699500D01*
X135221158Y-84699500D01*
X135221149Y-84699500D01*
X135211617Y-84701396D01*
X135142026Y-84695163D01*
X135086852Y-84652295D01*
X135081897Y-84644874D01*
X135067137Y-84620944D01*
X135042712Y-84581344D01*
X134918656Y-84457288D01*
X134769334Y-84365186D01*
X134602797Y-84310001D01*
X134602795Y-84310000D01*
X134500010Y-84299500D01*
X133699998Y-84299500D01*
X133699980Y-84299501D01*
X133597203Y-84310000D01*
X133597200Y-84310001D01*
X133430668Y-84365185D01*
X133430663Y-84365187D01*
X133281345Y-84457287D01*
X133187327Y-84551305D01*
X133126003Y-84584789D01*
X133056312Y-84579805D01*
X133011965Y-84551304D01*
X132918345Y-84457684D01*
X132769124Y-84365643D01*
X132769119Y-84365641D01*
X132602697Y-84310494D01*
X132602690Y-84310493D01*
X132499986Y-84300000D01*
X132350000Y-84300000D01*
X131850000Y-84300000D01*
X131700027Y-84300000D01*
X131700012Y-84300001D01*
X131597302Y-84310494D01*
X131430880Y-84365641D01*
X131430875Y-84365643D01*
X131281654Y-84457684D01*
X131157684Y-84581654D01*
X131065643Y-84730875D01*
X131065641Y-84730880D01*
X131010494Y-84897302D01*
X131010493Y-84897309D01*
X131000000Y-85000013D01*
X127099998Y-85000013D01*
X127099998Y-85000012D01*
X127089505Y-84897302D01*
X127034358Y-84730880D01*
X127034356Y-84730875D01*
X126942315Y-84581654D01*
X126818345Y-84457684D01*
X126669124Y-84365643D01*
X126669119Y-84365641D01*
X126502697Y-84310494D01*
X126502690Y-84310493D01*
X126399986Y-84300000D01*
X126250000Y-84300000D01*
X126250000Y-85250000D01*
X125750000Y-85250000D01*
X125750000Y-84300000D01*
X125600027Y-84300000D01*
X125600012Y-84300001D01*
X125497302Y-84310494D01*
X125330880Y-84365641D01*
X125330875Y-84365643D01*
X125181657Y-84457682D01*
X125088034Y-84551305D01*
X125026710Y-84584789D01*
X124957019Y-84579805D01*
X124912672Y-84551304D01*
X124818657Y-84457289D01*
X124818656Y-84457288D01*
X124669334Y-84365186D01*
X124502797Y-84310001D01*
X124502795Y-84310000D01*
X124400010Y-84299500D01*
X123599998Y-84299500D01*
X123599980Y-84299501D01*
X123497203Y-84310000D01*
X123497200Y-84310001D01*
X123330668Y-84365185D01*
X123330663Y-84365187D01*
X123181342Y-84457289D01*
X123057289Y-84581342D01*
X123057288Y-84581344D01*
X123020739Y-84640598D01*
X122968793Y-84687321D01*
X122915202Y-84699500D01*
X122821155Y-84699500D01*
X122666510Y-84730261D01*
X122666498Y-84730264D01*
X122520827Y-84790602D01*
X122520814Y-84790609D01*
X122389711Y-84878210D01*
X122389707Y-84878213D01*
X122278213Y-84989707D01*
X122278210Y-84989711D01*
X122190609Y-85120814D01*
X122190602Y-85120827D01*
X122130264Y-85266498D01*
X122130261Y-85266510D01*
X122099500Y-85421153D01*
X119400499Y-85421153D01*
X119369738Y-85266510D01*
X119369737Y-85266503D01*
X119362901Y-85250000D01*
X119309397Y-85120827D01*
X119309390Y-85120814D01*
X119221789Y-84989711D01*
X119221786Y-84989707D01*
X119110292Y-84878213D01*
X119110288Y-84878210D01*
X118979185Y-84790609D01*
X118979172Y-84790602D01*
X118833501Y-84730264D01*
X118833489Y-84730261D01*
X118678845Y-84699500D01*
X118678842Y-84699500D01*
X118521158Y-84699500D01*
X118521155Y-84699500D01*
X118366510Y-84730261D01*
X118366498Y-84730264D01*
X118220827Y-84790602D01*
X118220814Y-84790609D01*
X118089125Y-84878602D01*
X118022447Y-84899480D01*
X118020234Y-84899500D01*
X114300097Y-84899500D01*
X114233058Y-84879815D01*
X114212416Y-84863181D01*
X113283860Y-83934625D01*
X113250375Y-83873302D01*
X113255359Y-83803610D01*
X113297231Y-83747677D01*
X113362695Y-83723260D01*
X113430968Y-83738112D01*
X113433525Y-83739548D01*
X113468215Y-83759577D01*
X113620943Y-83800500D01*
X137799903Y-83800500D01*
X137866942Y-83820185D01*
X137887584Y-83836819D01*
X138931192Y-84880427D01*
X138964677Y-84941750D01*
X138959693Y-85011442D01*
X138946613Y-85036998D01*
X138890612Y-85120809D01*
X138890602Y-85120827D01*
X138830264Y-85266498D01*
X138830261Y-85266510D01*
X138799500Y-85421153D01*
X138799500Y-85578846D01*
X138830261Y-85733489D01*
X138830264Y-85733501D01*
X138890602Y-85879172D01*
X138890609Y-85879185D01*
X138978210Y-86010288D01*
X138978213Y-86010292D01*
X139089707Y-86121786D01*
X139089711Y-86121789D01*
X139220814Y-86209390D01*
X139220827Y-86209397D01*
X139365011Y-86269119D01*
X139366503Y-86269737D01*
X139511631Y-86298605D01*
X139521153Y-86300499D01*
X139521156Y-86300500D01*
X139521158Y-86300500D01*
X139678844Y-86300500D01*
X139678845Y-86300499D01*
X139833497Y-86269737D01*
X139979179Y-86209394D01*
X140110289Y-86121789D01*
X140221789Y-86010289D01*
X140309394Y-85879179D01*
X140369737Y-85733497D01*
X140400500Y-85578842D01*
X140400500Y-85421158D01*
X140400500Y-85421155D01*
X140400499Y-85421153D01*
X140369738Y-85266510D01*
X140369737Y-85266503D01*
X140362901Y-85250000D01*
X140309397Y-85120827D01*
X140309390Y-85120814D01*
X140221398Y-84989125D01*
X140200520Y-84922447D01*
X140200500Y-84920234D01*
X140200500Y-84620944D01*
X140200500Y-84620943D01*
X140189889Y-84581344D01*
X140189534Y-84580019D01*
X140159577Y-84468216D01*
X140100094Y-84365187D01*
X140080524Y-84331290D01*
X140080521Y-84331286D01*
X140080520Y-84331284D01*
X139968716Y-84219480D01*
X139968715Y-84219479D01*
X139964385Y-84215149D01*
X139964374Y-84215139D01*
X138587590Y-82838355D01*
X138587588Y-82838352D01*
X138468717Y-82719481D01*
X138468716Y-82719480D01*
X138381904Y-82669360D01*
X138381904Y-82669359D01*
X138381900Y-82669358D01*
X138331785Y-82640423D01*
X138179057Y-82599499D01*
X138020943Y-82599499D01*
X138013347Y-82599499D01*
X138013331Y-82599500D01*
X114000097Y-82599500D01*
X113933058Y-82579815D01*
X113912416Y-82563181D01*
X103852590Y-72503355D01*
X103852588Y-72503352D01*
X103733717Y-72384481D01*
X103733709Y-72384475D01*
X103610143Y-72313135D01*
X103610140Y-72313134D01*
X103596785Y-72305423D01*
X103444057Y-72264499D01*
X103285943Y-72264499D01*
X103278347Y-72264499D01*
X103278331Y-72264500D01*
X78965907Y-72264500D01*
X78898868Y-72244815D01*
X78853113Y-72192011D01*
X78843169Y-72122853D01*
X78859175Y-72077380D01*
X78887684Y-72029172D01*
X78901744Y-72005398D01*
X78947598Y-71847569D01*
X78950500Y-71810694D01*
X78950500Y-71379306D01*
X78947598Y-71342431D01*
X78901744Y-71184602D01*
X78818081Y-71043135D01*
X78818079Y-71043133D01*
X78818076Y-71043129D01*
X78701870Y-70926923D01*
X78701862Y-70926917D01*
X78560396Y-70843255D01*
X78560393Y-70843254D01*
X78402573Y-70797402D01*
X78402567Y-70797401D01*
X78365701Y-70794500D01*
X78365694Y-70794500D01*
X77015523Y-70794500D01*
X76948484Y-70774815D01*
X76902729Y-70722011D01*
X76892785Y-70652853D01*
X76921810Y-70589297D01*
X76927842Y-70582819D01*
X76967315Y-70543345D01*
X77059356Y-70394124D01*
X77059358Y-70394119D01*
X77114505Y-70227697D01*
X77114506Y-70227690D01*
X77124999Y-70124986D01*
X77125000Y-70124973D01*
X77125000Y-69850000D01*
X76161500Y-69850000D01*
X76094461Y-69830315D01*
X76048706Y-69777511D01*
X76037500Y-69726000D01*
X76037500Y-69600000D01*
X75911500Y-69600000D01*
X75844461Y-69580315D01*
X75798706Y-69527511D01*
X75787500Y-69476000D01*
X75787500Y-69350000D01*
X76287500Y-69350000D01*
X77124999Y-69350000D01*
X77124999Y-69075028D01*
X77124998Y-69075013D01*
X77114505Y-68972302D01*
X77059358Y-68805880D01*
X77059356Y-68805875D01*
X76967315Y-68656654D01*
X76843345Y-68532684D01*
X76694124Y-68440643D01*
X76694119Y-68440641D01*
X76527697Y-68385494D01*
X76527690Y-68385493D01*
X76424986Y-68375000D01*
X76287500Y-68375000D01*
X76287500Y-69350000D01*
X75787500Y-69350000D01*
X75787500Y-68375000D01*
X75650027Y-68375000D01*
X75650012Y-68375001D01*
X75547302Y-68385494D01*
X75380880Y-68440641D01*
X75380875Y-68440643D01*
X75231654Y-68532684D01*
X75107683Y-68656655D01*
X75107679Y-68656660D01*
X75105826Y-68659665D01*
X75104018Y-68661290D01*
X75103202Y-68662323D01*
X75103025Y-68662183D01*
X75053874Y-68706385D01*
X74984911Y-68717601D01*
X74920831Y-68689752D01*
X74894753Y-68659653D01*
X74894737Y-68659628D01*
X74892712Y-68656344D01*
X74768656Y-68532288D01*
X74768655Y-68532287D01*
X74721902Y-68503449D01*
X74675178Y-68451500D01*
X74663000Y-68397911D01*
X74663000Y-63820440D01*
X74682685Y-63753401D01*
X74699319Y-63732759D01*
X75595259Y-62836819D01*
X75656582Y-62803334D01*
X75682940Y-62800500D01*
X111517060Y-62800500D01*
X111584099Y-62820185D01*
X111604741Y-62836819D01*
X112713181Y-63945259D01*
X112746666Y-64006582D01*
X112749500Y-64032940D01*
X112749500Y-69875500D01*
X112729815Y-69942539D01*
X112677011Y-69988294D01*
X112625500Y-69999500D01*
X111002129Y-69999500D01*
X111002123Y-69999501D01*
X110942516Y-70005908D01*
X110807671Y-70056202D01*
X110807664Y-70056206D01*
X110692455Y-70142452D01*
X110692452Y-70142455D01*
X110606206Y-70257664D01*
X110606202Y-70257671D01*
X110555908Y-70392517D01*
X110549501Y-70452116D01*
X110549501Y-70452123D01*
X110549500Y-70452135D01*
X110549500Y-75547870D01*
X110549501Y-75547876D01*
X110555908Y-75607483D01*
X110606202Y-75742328D01*
X110606206Y-75742335D01*
X110692452Y-75857544D01*
X110692455Y-75857547D01*
X110807664Y-75943793D01*
X110807671Y-75943797D01*
X110942517Y-75994091D01*
X110942516Y-75994091D01*
X110949444Y-75994835D01*
X111002127Y-76000500D01*
X116097872Y-76000499D01*
X116157483Y-75994091D01*
X116292331Y-75943796D01*
X116407546Y-75857546D01*
X116493796Y-75742331D01*
X116544091Y-75607483D01*
X116550500Y-75547873D01*
X116550499Y-70452135D01*
X136449500Y-70452135D01*
X136449500Y-75547870D01*
X136449501Y-75547876D01*
X136455908Y-75607483D01*
X136506202Y-75742328D01*
X136506206Y-75742335D01*
X136592452Y-75857544D01*
X136592455Y-75857547D01*
X136707664Y-75943793D01*
X136707671Y-75943797D01*
X136842517Y-75994091D01*
X136842516Y-75994091D01*
X136849444Y-75994835D01*
X136902127Y-76000500D01*
X141997872Y-76000499D01*
X142057483Y-75994091D01*
X142192331Y-75943796D01*
X142307546Y-75857546D01*
X142393796Y-75742331D01*
X142444091Y-75607483D01*
X142450500Y-75547873D01*
X142450499Y-70452128D01*
X142444091Y-70392517D01*
X142393796Y-70257669D01*
X142393795Y-70257668D01*
X142393793Y-70257664D01*
X142307547Y-70142455D01*
X142307544Y-70142452D01*
X142192335Y-70056206D01*
X142192328Y-70056202D01*
X142057482Y-70005908D01*
X142057483Y-70005908D01*
X141997883Y-69999501D01*
X141997881Y-69999500D01*
X141997873Y-69999500D01*
X141997864Y-69999500D01*
X136902129Y-69999500D01*
X136902123Y-69999501D01*
X136842516Y-70005908D01*
X136707671Y-70056202D01*
X136707664Y-70056206D01*
X136592455Y-70142452D01*
X136592452Y-70142455D01*
X136506206Y-70257664D01*
X136506202Y-70257671D01*
X136455908Y-70392517D01*
X136449501Y-70452116D01*
X136449501Y-70452123D01*
X136449500Y-70452135D01*
X116550499Y-70452135D01*
X116550499Y-70452128D01*
X116544091Y-70392517D01*
X116493796Y-70257669D01*
X116493795Y-70257668D01*
X116493793Y-70257664D01*
X116407547Y-70142455D01*
X116407544Y-70142452D01*
X116292335Y-70056206D01*
X116292328Y-70056202D01*
X116157482Y-70005908D01*
X116157483Y-70005908D01*
X116097883Y-69999501D01*
X116097881Y-69999500D01*
X116097873Y-69999500D01*
X116097865Y-69999500D01*
X114474500Y-69999500D01*
X114407461Y-69979815D01*
X114361706Y-69927011D01*
X114350500Y-69875500D01*
X114350500Y-63571156D01*
X114350499Y-63571154D01*
X114339597Y-63516342D01*
X114319738Y-63416509D01*
X114319737Y-63416502D01*
X114295777Y-63358658D01*
X114295775Y-63358653D01*
X114259397Y-63270827D01*
X114259390Y-63270814D01*
X114171790Y-63139712D01*
X114171789Y-63139711D01*
X114060289Y-63028211D01*
X113832578Y-62800500D01*
X112410292Y-61378213D01*
X112410288Y-61378210D01*
X112279185Y-61290609D01*
X112279172Y-61290602D01*
X112133501Y-61230264D01*
X112133489Y-61230261D01*
X111978845Y-61199500D01*
X111978842Y-61199500D01*
X75378842Y-61199500D01*
X75221158Y-61199500D01*
X75221155Y-61199500D01*
X75066510Y-61230261D01*
X75066498Y-61230264D01*
X74920827Y-61290602D01*
X74920814Y-61290609D01*
X74789711Y-61378210D01*
X74789707Y-61378213D01*
X73367422Y-62800500D01*
X73352211Y-62815711D01*
X73296460Y-62871462D01*
X73240709Y-62927212D01*
X73153109Y-63058314D01*
X73153102Y-63058327D01*
X73092764Y-63203998D01*
X73092761Y-63204010D01*
X73062000Y-63358653D01*
X73062000Y-68575666D01*
X73057162Y-68592470D01*
X73057342Y-68609335D01*
X73045798Y-68631947D01*
X73043022Y-68641593D01*
X73036247Y-68652384D01*
X73032288Y-68656344D01*
X72949229Y-68791003D01*
X72948964Y-68791427D01*
X72923163Y-68814267D01*
X72897533Y-68837321D01*
X72896981Y-68837446D01*
X72896649Y-68837741D01*
X72893632Y-68838207D01*
X72843942Y-68849500D01*
X72601080Y-68849500D01*
X72456092Y-68878340D01*
X72456086Y-68878342D01*
X72319508Y-68934914D01*
X72319496Y-68934921D01*
X72270269Y-68967813D01*
X72196588Y-69017044D01*
X72196580Y-69017050D01*
X71942050Y-69271580D01*
X71942044Y-69271588D01*
X71892812Y-69345268D01*
X71892813Y-69345269D01*
X71859921Y-69394496D01*
X71859914Y-69394508D01*
X71803342Y-69531086D01*
X71803340Y-69531092D01*
X71774500Y-69676079D01*
X71774500Y-70670500D01*
X71754815Y-70737539D01*
X71702011Y-70783294D01*
X71650500Y-70794500D01*
X71634298Y-70794500D01*
X71597432Y-70797401D01*
X71597426Y-70797402D01*
X71439606Y-70843254D01*
X71439603Y-70843255D01*
X71298137Y-70926917D01*
X71298129Y-70926923D01*
X71266874Y-70958180D01*
X71205552Y-70991666D01*
X71179192Y-70994500D01*
X68455452Y-70994500D01*
X68388413Y-70974815D01*
X68367770Y-70958180D01*
X68325022Y-70915431D01*
X68325018Y-70915428D01*
X68178569Y-70817573D01*
X68178560Y-70817568D01*
X68015829Y-70750163D01*
X68015821Y-70750161D01*
X67843075Y-70715800D01*
X67843071Y-70715800D01*
X67666929Y-70715800D01*
X67666924Y-70715800D01*
X67494178Y-70750161D01*
X67494170Y-70750163D01*
X67331439Y-70817568D01*
X67331430Y-70817573D01*
X67184981Y-70915428D01*
X67184977Y-70915431D01*
X67060431Y-71039977D01*
X67060428Y-71039981D01*
X66962573Y-71186430D01*
X66962568Y-71186439D01*
X66895163Y-71349170D01*
X66895161Y-71349178D01*
X66860800Y-71521924D01*
X66860800Y-71698075D01*
X66895161Y-71870821D01*
X66895163Y-71870829D01*
X66962568Y-72033560D01*
X66962573Y-72033569D01*
X67057816Y-72176109D01*
X67078694Y-72242786D01*
X67060210Y-72310167D01*
X67057816Y-72313891D01*
X66962573Y-72456430D01*
X66962568Y-72456439D01*
X66895163Y-72619170D01*
X66895161Y-72619178D01*
X66860800Y-72791924D01*
X66860800Y-72968075D01*
X66895161Y-73140821D01*
X66895163Y-73140829D01*
X66962568Y-73303560D01*
X66962573Y-73303569D01*
X67057816Y-73446109D01*
X67078694Y-73512786D01*
X67060210Y-73580167D01*
X67057816Y-73583891D01*
X66962573Y-73726430D01*
X66962568Y-73726439D01*
X66895163Y-73889170D01*
X66895161Y-73889178D01*
X66860800Y-74061924D01*
X66860800Y-74238075D01*
X66895161Y-74410821D01*
X66895163Y-74410829D01*
X66962568Y-74573560D01*
X66962573Y-74573569D01*
X67055316Y-74712367D01*
X67076194Y-74779044D01*
X67057710Y-74846424D01*
X67055316Y-74850149D01*
X66957573Y-74996430D01*
X66957568Y-74996439D01*
X66890163Y-75159170D01*
X66890161Y-75159178D01*
X66855800Y-75331924D01*
X64500500Y-75331924D01*
X64500500Y-61503750D01*
X64500726Y-61496263D01*
X64518271Y-61206205D01*
X64520076Y-61191340D01*
X64571780Y-60909201D01*
X64575364Y-60894663D01*
X64652096Y-60648422D01*
X64660696Y-60620822D01*
X64665998Y-60606841D01*
X64783731Y-60345249D01*
X64790676Y-60332016D01*
X64939080Y-60086526D01*
X64947567Y-60074230D01*
X65124480Y-59848417D01*
X65134395Y-59837226D01*
X65337226Y-59634395D01*
X65348417Y-59624480D01*
X65574230Y-59447567D01*
X65586526Y-59439080D01*
X65832016Y-59290676D01*
X65845249Y-59283731D01*
X66106841Y-59165998D01*
X66120822Y-59160696D01*
X66394668Y-59075362D01*
X66409197Y-59071780D01*
X66691344Y-59020075D01*
X66706201Y-59018271D01*
X66996264Y-59000726D01*
X67003751Y-59000500D01*
X67065892Y-59000500D01*
X140934108Y-59000500D01*
X140996249Y-59000500D01*
X141003736Y-59000726D01*
G37*
%TD.AperFunction*%
%TD*%
M02*
