%TF.GenerationSoftware,KiCad,Pcbnew,9.0.2*%
%TF.CreationDate,2025-05-22T18:28:57+02:00*%
%TF.ProjectId,blinky,626c696e-6b79-42e6-9b69-6361645f7063,rev?*%
%TF.SameCoordinates,Original*%
%TF.FileFunction,Legend,Top*%
%TF.FilePolarity,Positive*%
%FSLAX46Y46*%
G04 Gerber Fmt 4.6, Leading zero omitted, Abs format (unit mm)*
G04 Created by KiCad (PCBNEW 9.0.2) date 2025-05-22 18:28:57*
%MOMM*%
%LPD*%
G01*
G04 APERTURE LIST*
%ADD10C,0.100000*%
%ADD11C,0.120000*%
G04 APERTURE END LIST*
D10*
X64500000Y-68250000D02*
X143500000Y-68250000D01*
X143500000Y-83250000D01*
X64500000Y-83250000D01*
X64500000Y-68250000D01*
G36*
X64500000Y-68250000D02*
G01*
X143500000Y-68250000D01*
X143500000Y-83250000D01*
X64500000Y-83250000D01*
X64500000Y-68250000D01*
G37*
D11*
%TO.C,D5*%
X135627500Y-84540000D02*
X135627500Y-86460000D01*
X135627500Y-86460000D02*
X138487500Y-86460000D01*
X138487500Y-84540000D02*
X135627500Y-84540000D01*
%TO.C,D2*%
X85396250Y-84540000D02*
X85396250Y-86460000D01*
X85396250Y-86460000D02*
X88256250Y-86460000D01*
X88256250Y-84540000D02*
X85396250Y-84540000D01*
%TO.C,D3*%
X102700000Y-86460000D02*
X105560000Y-86460000D01*
X105560000Y-84540000D02*
X102700000Y-84540000D01*
X105560000Y-86460000D02*
X105560000Y-84540000D01*
%TO.C,D4*%
X119743750Y-86460000D02*
X122603750Y-86460000D01*
X122603750Y-84540000D02*
X119743750Y-84540000D01*
X122603750Y-86460000D02*
X122603750Y-84540000D01*
%TO.C,D1*%
X69512500Y-86460000D02*
X72372500Y-86460000D01*
X72372500Y-84540000D02*
X69512500Y-84540000D01*
X72372500Y-86460000D02*
X72372500Y-84540000D01*
%TD*%
M02*
